# xmcd
#
# Track frame offsets:
#	177
#	20650
#	34505
#	52580
#	67710
#	86027
#	98665
#	113852
#	132797
#	150530
#
# Disc length: 2177
#
# Revision: 3
# Processed by: cddbd v1.5.1PL0 Copyright (c) Steve Scherf et al.
# Submitted via: CDValet v3.31 - Copyright (c) 1997 Greg Leichner
# Normalized: r1:TDELIM( - );r2:TSWAP
#
DISCID=6b087f0a
DTITLE=Various Artist - The New Country Tradition
DYEAR=1900
DGENRE=
TTITLE0=Tanya Tucker - Just Watch Me
TTITLE1=George Ducas - Teardrops
TTITLE2=John Berry - You And Only You
TTITLE3=Ricky Lynn Gregg - Get A Little Closer
TTITLE4=Chris LeDoux - Honky Tonk World
TTITLE5=Billy Dean - Men Will Be Boys
TTITLE6=Cleve Francis - Love Or The Lack Thereof
TTITLE7=Suzy Bogguss - Souvenirs
TTITLE8=Bryan Austin - Is It Just Me
TTITLE9=Willie Nelson - Crazy
EXTD=
EXTT0=
EXTT1=
EXTT2=
EXTT3=
EXTT4=
EXTT5=
EXTT6=
EXTT7=
EXTT8=
EXTT9=
PLAYORDER=
